HIERARCHY
ROOT Hips
{
	OFFSET -14.64140 90.27770 -84.91600
	CHANNELS 6 Xposition Yposition Zposition Zrotation Xrotation Yrotation
	JOINT Spine
	{
		OFFSET 0.00000 13.20850 -1.60436
		CHANNELS 3 Zrotation Xrotation Yrotation
		JOINT Spine1
		{
			OFFSET 0.00000 8.61716 0.00000
			CHANNELS 3 Zrotation Xrotation Yrotation
			JOINT Spine2
			{
				OFFSET 0.00000 8.61717 0.00000
				CHANNELS 3 Zrotation Xrotation Yrotation
				JOINT Spine3
				{
					OFFSET 0.00000 8.61717 0.00000
					CHANNELS 3 Zrotation Xrotation Yrotation
					JOINT Neck
					{
						OFFSET 0.00000 11.07920 1.10792
						CHANNELS 3 Zrotation Xrotation Yrotation
						JOINT Neck1
						{
							OFFSET 0.00000 7.08032 0.00000
							CHANNELS 3 Zrotation Xrotation Yrotation
							JOINT Head
							{
								OFFSET 0.00000 7.08031 0.00000
								CHANNELS 3 Zrotation Xrotation Yrotation
								End site
								{
									OFFSET 0.00000 0.00000 0.00000
								}
							}
						}
					}
					JOINT RightShoulder
					{
						OFFSET -0.01000 7.91373 5.19711
						CHANNELS 3 Zrotation Xrotation Yrotation
						JOINT RightArm
						{
							OFFSET -18.41580 0.00000 0.00000
							CHANNELS 3 Zrotation Xrotation Yrotation
							JOINT RightForeArm
							{
								OFFSET -29.11090 0.00000 0.00000
								CHANNELS 3 Zrotation Xrotation Yrotation
								JOINT RightHand
								{
									OFFSET -24.65040 0.00000 0.00000
									CHANNELS 3 Zrotation Xrotation Yrotation
									JOINT RightHandThumb1
									{
										OFFSET -5.35114 -0.85590 3.97906
										CHANNELS 3 Zrotation Xrotation Yrotation
										JOINT RightHandThumb2
										{
											OFFSET -4.52789 0.00000 0.00000
											CHANNELS 3 Zrotation Xrotation Yrotation
											JOINT RightHandThumb3
											{
												OFFSET -2.46976 0.00000 0.00000
												CHANNELS 3 Zrotation Xrotation Yrotation
												End site
												{
													OFFSET 0.00000 0.00000 0.00000
												}
											}
										}
									}
									JOINT RightHandIndex1
									{
										OFFSET -14.26970 0.00000 2.88139
										CHANNELS 3 Zrotation Xrotation Yrotation
										JOINT RightHandIndex2
										{
											OFFSET -5.48836 0.00000 0.00000
											CHANNELS 3 Zrotation Xrotation Yrotation
											JOINT RightHandIndex3
											{
												OFFSET -3.01859 0.00000 0.00000
												CHANNELS 3 Zrotation Xrotation Yrotation
												End site
												{
													OFFSET 0.00000 0.00000 0.00000
												}
											}
										}
									}
									JOINT RightHandMiddle1
									{
										OFFSET -14.26970 0.00000 -0.09147
										CHANNELS 3 Zrotation Xrotation Yrotation
										JOINT RightHandMiddle2
										{
											OFFSET -6.17441 0.00000 0.00000
											CHANNELS 3 Zrotation Xrotation Yrotation
											JOINT RightHandMiddle3
											{
												OFFSET -3.56743 0.00000 0.00000
												CHANNELS 3 Zrotation Xrotation Yrotation
												End site
												{
													OFFSET 0.00000 0.00000 0.00000
												}
											}
										}
									}
									JOINT RightHandRing1
									{
										OFFSET -12.69180 0.00000 -3.06433
										CHANNELS 3 Zrotation Xrotation Yrotation
										JOINT RightHandRing2
										{
											OFFSET -5.62556 0.00000 0.00000
											CHANNELS 3 Zrotation Xrotation Yrotation
											JOINT RightHandRing3
											{
												OFFSET -3.56744 0.00000 0.00000
												CHANNELS 3 Zrotation Xrotation Yrotation
												End site
												{
													OFFSET 0.00000 0.00000 0.00000
												}
											}
										}
									}
									JOINT RightHandPinky1
									{
										OFFSET -11.11390 0.00000 -6.03719
										CHANNELS 3 Zrotation Xrotation Yrotation
										JOINT RightHandPinky2
										{
											OFFSET -4.52789 0.00000 0.00000
											CHANNELS 3 Zrotation Xrotation Yrotation
											JOINT RightHandPinky3
											{
												OFFSET -2.46976 0.00000 0.00000
												CHANNELS 3 Zrotation Xrotation Yrotation
												End site
												{
													OFFSET 0.00000 0.00000 0.00000
												}
											}
										}
									}
								}
							}
						}
					}
					JOINT LeftShoulder
					{
						OFFSET 0.01000 7.91373 5.19711
						CHANNELS 3 Zrotation Xrotation Yrotation
						JOINT LeftArm
						{
							OFFSET 18.41580 0.00000 0.00000
							CHANNELS 3 Zrotation Xrotation Yrotation
							JOINT LeftForeArm
							{
								OFFSET 29.11090 0.00000 0.00000
								CHANNELS 3 Zrotation Xrotation Yrotation
								JOINT LeftHand
								{
									OFFSET 24.65040 0.00000 0.00000
									CHANNELS 3 Zrotation Xrotation Yrotation
									JOINT LeftHandThumb1
									{
										OFFSET 5.35114 -0.85590 3.97906
										CHANNELS 3 Zrotation Xrotation Yrotation
										JOINT LeftHandThumb2
										{
											OFFSET 4.52789 0.00000 0.00000
											CHANNELS 3 Zrotation Xrotation Yrotation
											JOINT LeftHandThumb3
											{
												OFFSET 2.46977 0.00000 0.00000
												CHANNELS 3 Zrotation Xrotation Yrotation
												End site
												{
													OFFSET 0.00000 0.00000 0.00000
												}
											}
										}
									}
									JOINT LeftHandIndex1
									{
										OFFSET 14.26970 0.00000 2.88139
										CHANNELS 3 Zrotation Xrotation Yrotation
										JOINT LeftHandIndex2
										{
											OFFSET 5.48836 0.00000 0.00000
											CHANNELS 3 Zrotation Xrotation Yrotation
											JOINT LeftHandIndex3
											{
												OFFSET 3.01859 0.00000 0.00000
												CHANNELS 3 Zrotation Xrotation Yrotation
												End site
												{
													OFFSET 0.00000 0.00000 0.00000
												}
											}
										}
									}
									JOINT LeftHandMiddle1
									{
										OFFSET 14.26970 0.00000 -0.09147
										CHANNELS 3 Zrotation Xrotation Yrotation
										JOINT LeftHandMiddle2
										{
											OFFSET 6.17440 0.00000 0.00000
											CHANNELS 3 Zrotation Xrotation Yrotation
											JOINT LeftHandMiddle3
											{
												OFFSET 3.56744 0.00000 0.00000
												CHANNELS 3 Zrotation Xrotation Yrotation
												End site
												{
													OFFSET 0.00000 0.00000 0.00000
												}
											}
										}
									}
									JOINT LeftHandRing1
									{
										OFFSET 12.69180 0.00000 -3.06433
										CHANNELS 3 Zrotation Xrotation Yrotation
										JOINT LeftHandRing2
										{
											OFFSET 5.62556 0.00000 0.00000
											CHANNELS 3 Zrotation Xrotation Yrotation
											JOINT LeftHandRing3
											{
												OFFSET 3.56744 0.00000 0.00000
												CHANNELS 3 Zrotation Xrotation Yrotation
												End site
												{
													OFFSET 0.00000 0.00000 0.00000
												}
											}
										}
									}
									JOINT LeftHandPinky1
									{
										OFFSET 11.11390 0.00000 -6.03719
										CHANNELS 3 Zrotation Xrotation Yrotation
										JOINT LeftHandPinky2
										{
											OFFSET 4.52789 0.00000 0.00000
											CHANNELS 3 Zrotation Xrotation Yrotation
											JOINT LeftHandPinky3
											{
												OFFSET 2.46976 0.00000 0.00000
												CHANNELS 3 Zrotation Xrotation Yrotation
												End site
												{
													OFFSET 0.00000 0.00000 0.00000
												}
											}
										}
									}
								}
							}
						}
					}
					JOINT pCube4
					{
						OFFSET 0.00000 10.91090 1.10792
						CHANNELS 3 Zrotation Xrotation Yrotation
						End site
						{
							OFFSET 0.00000 0.00000 0.00000
						}
					}
				}
			}
		}
	}
	JOINT RightUpLeg
	{
		OFFSET -9.98441 0.00000 0.00000
		CHANNELS 3 Zrotation Xrotation Yrotation
		JOINT RightLeg
		{
			OFFSET 0.00000 -42.11790 0.00000
			CHANNELS 3 Zrotation Xrotation Yrotation
			JOINT RightFoot
			{
				OFFSET 0.00000 -45.00020 -0.00001
				CHANNELS 3 Zrotation Xrotation Yrotation
				JOINT RightForeFoot
				{
					OFFSET 0.00000 -3.74820 0.00000
					CHANNELS 3 Zrotation Xrotation Yrotation
					JOINT RightToeBase
					{
						OFFSET 0.00000 0.06325 14.43120
						CHANNELS 3 Zrotation Xrotation Yrotation
						End site
						{
							OFFSET 0.00000 0.00000 0.00000
						}
					}
				}
			}
		}
	}
	JOINT LeftUpLeg
	{
		OFFSET 9.98441 0.00000 0.00000
		CHANNELS 3 Zrotation Xrotation Yrotation
		JOINT LeftLeg
		{
			OFFSET 0.00000 -42.11800 0.00000
			CHANNELS 3 Zrotation Xrotation Yrotation
			JOINT LeftFoot
			{
				OFFSET 0.00000 -45.00070 0.00000
				CHANNELS 3 Zrotation Xrotation Yrotation
				JOINT LeftForeFoot
				{
					OFFSET 0.00000 -3.74824 0.00000
					CHANNELS 3 Zrotation Xrotation Yrotation
					JOINT LeftToeBase
					{
						OFFSET 0.00000 0.06325 14.43110
						CHANNELS 3 Zrotation Xrotation Yrotation
						End site
						{
							OFFSET 0.00000 0.00000 0.00000
						}
					}
				}
			}
		}
	}
}
MOTION
Frames: 4
Frame Time: 0.050000
0.008644281693942144 0.004295390521143094 -0.00940308086699472 -0.044147937562071485 0.04802062651289524 0.03765724884296451 4.859499018831792 1.9988616484932054 -2.274913805412884 -0.7542424522513399 3.423818614436856 0.42319240432608307 -0.8670069426152714 -1.6390280583048487 2.17586789180448 -1.0334305313040937 -0.7782952093017249 -0.034453508083036204 1.2212735206592533 13.821592353649104 -2.794009747493032 0.5564828296910094 -0.45878729443413063 -6.669613515780076 1.5900031352162147 -17.366696345309595 -0.6415636034356431 -15.395486422022454 4.702849550603687 -18.82011631515996 80.3894799712359 -12.304750356003213 39.03826675939547 3.3188467723147834 4.933110513967865 103.61586284066185 20.018833380734403 -0.877684641988062 -5.6965622862031475 4.550936572077823 -0.15939453066990197 -1.6350603266763337 0.013846869724244126 -0.007595264272044386 -56.19474005068545 0.0019264445494667965 -0.03965917120903222 -56.24018335384561 -38.817710406688356 0.03660815266569029 -0.005779973855517751 0.011800928875578258 0.04923644228414962 -0.030488651908773208 -0.03807739536899078 0.03613218665179896 0.02979501385194291 -36.696424158748215 -0.00186069408974155 -0.023265527115503812 -0.04913380832409247 -0.012985730281596454 -0.011021221074074968 -0.017486886800654012 -0.027690563290478604 -0.02914068681183019 -19.772393066215603 0.007798654553763031 -0.04048644539324339 -0.04506370007728137 -0.020538990033363822 0.0028652195242675144 0.03583957380416899 0.004943400876093699 0.03927758254780525 24.07923500728285 -0.04032381287265353 -0.03496576233683532 28.83234630917585 -0.024968208764041943 -0.02034438334483277 28.89921431534303 0.027366045741251174 -0.012906680822977957 10.650575095368906 2.471176277118503 14.79074154864859 -73.1160145427068 20.489433547557827 -11.477441976854099 -28.616105234592823 10.288189733083698 -86.39034563986411 -29.901185958814107 -11.4966828072945 9.168378244529585 -0.5191702231355039 0.11630109824740742 -8.126910011915882 -0.002906998173600819 0.03028247765946323 44.59017033034617 -0.006684431647259708 0.023573571776240972 44.54526114791697 12.493431285516643 -0.02259334040946261 -0.04273943276966286 0.0011827246025873928 -0.02216371372350618 -0.04909177913005302 -0.02857438369183428 0.0013646298116878086 -0.0053642829039369745 11.115183902846614 0.043432459945366535 -0.01615004906922182 0.04654420747546351 0.024363327968757446 0.03901050906347073 0.009203130495401626 -0.02037730161952441 -0.012394812115686335 4.788905533195568 0.015979902903344466 -0.02189783138996086 -0.03295758528050395 -0.043345003223135205 -0.033910373620808995 -0.01032901389731726 0.021897612642344712 -0.009312908865660916 -5.599700242380485 0.019572528653276803 -0.0076797049115014775 -6.73734592474023 -0.03497869998866228 -0.03781691026963523 -6.714125877617931 -0.027533528290213584 -0.02030470762647406 0.034156969310191077 0.004331725560907181 -0.01909022953270015 8.05528134061318 3.5263796676782686 -19.236276609474146 0.03912889922926309 10.358879089610905 0.036870771393389304 -5.593822428108754 -15.612906846484826 3.21354775072694 0.020434386490241298 -0.015230405974693152 -0.03513786607226385 -0.035230985798808255 4.70893805621808 0.034554337396630254 12.438791160523984 -8.197713229940915 6.930006082961141 -0.046855889926514446 46.408208507642755 -0.03710299166030262 -4.324798812523921 -14.773603043706444 -3.848609718619292 0.00946748105590111 -0.021328363553124837 -0.009468749825247497 0.03272849748929266 -10.710923850370484 -0.012901488400734313 
0.039862492449001925 0.0032459525368392647 0.018166675805818443 0.013638427925475129 0.0100715392927068 0.0440598148040355 4.5972728319215985 2.1471190767477317 -2.2321050136684004 -0.7441917643429009 3.4192129370914475 0.42719509356239554 -0.9222125894929621 -1.5973836210153887 2.0667670938440956 -0.9510997562197866 -0.7802408603209681 -0.09939998708915536 1.1933257131015462 13.647549559581465 -2.8238234804033104 0.49667097063173227 -0.5287128655563633 -6.8492227542756 1.6032305943450764 -17.443456805972648 -0.6378254622508781 -14.719613597234385 4.499636901078153 -18.497849151031602 77.68177951943461 -10.888835451342201 37.51720393221987 4.306082178168196 4.530345895274399 102.50203038284867 20.873124909728457 -0.8674248759951493 -5.985601728352002 4.496832889839833 -0.11404226993055304 -1.5888883455367215 0.010424702457751484 0.020760456332476918 -56.25890405685358 0.023194149604919702 0.022924894595503398 -56.23847258233357 -38.75072447214491 0.02281420692445441 -0.028070150168594814 0.04320596446811574 0.02342716537397621 0.04429470532807929 -0.006131103829917842 0.020680219065674972 -0.03648893275936118 -36.69212370932699 0.04101978323689224 0.018127349266443406 0.02036242553482415 -0.04816012511913606 -0.020425374164433994 -0.014987156144382181 -0.0174203801921504 0.029312976590039733 -19.75904774167375 0.0027829029159248436 0.024027855281730855 0.008634008808223225 0.01238024318935468 0.016050234050989633 0.02725055560939987 0.02358822338389761 -0.023445566622625633 24.023414551635227 0.0172153180174355 -0.012871265610883947 28.89439399625507 0.02281070955292458 0.0005681159764556706 28.88518743969986 -0.000624941795077231 -0.03479781861962452 10.265997033680232 2.3777322178761384 14.685061150905367 -71.90452192438225 20.745623243832014 -11.743299509972896 -26.998537836025672 8.840242566433286 -87.76122039291774 -29.35087525775607 -11.042353960074697 8.596894683331211 -0.490242541347858 0.056539561696147066 -8.128627631282788 0.028434794793526588 -0.0007276890030456895 44.52360517034529 -0.04069604381544015 -0.01312805543042838 44.58597142573489 12.477126959273756 -0.04699800144384888 -0.028410559961862217 0.04194621872727306 0.014123476363357068 0.04457785849465462 -0.03808522926258704 0.027321384503732858 0.021588980173075013 11.096372003085136 0.0003404349310972341 0.03199629931235442 -0.025329445571951412 -0.0031133242450589248 -0.0008424724661256264 0.02303910699201701 -0.0018220824503165896 -0.019638760425339005 4.762697256662923 -0.011739223761271782 0.007107808128141117 0.03887530974147688 0.04280352509165076 0.022792686206683236 -0.022891542963513173 -0.03473983575886025 -0.033968701531163714 -5.605700817072585 -0.04683537310779608 0.039882478188986006 -6.747056139084173 -0.047134082226820334 0.017681382823641206 -6.714447559649915 0.011645225590938888 -0.01992564606460813 0.013918142495036876 -0.02205914635812034 -0.005928642643704425 8.084396353365223 3.5357459272164946 -19.231197473206898 9.094756031904967e-05 10.365221400494734 -0.03055446931465351 -5.650292466793713 -15.677102185322822 3.177108739020595 -0.012223266111316449 0.034798856446206436 0.010415522303682874 -0.03826251696340928 4.706818178050054 0.041860063317769654 12.49941924282675 -8.26257338640717 6.869995983108594 -0.02802921729690502 46.41323624804121 -0.044993505339943105 -4.32355389607711 -14.701375476305888 -3.834697242252587 0.045911500811918186 -0.0007099882673166705 -0.019329118311892424 -0.0033858356205844395 -10.76069082424845 -0.0341018032317368 
0.006693619697122871 -0.016514395025410238 -0.021244008668874336 0.03064052864799506 -0.0384657807810057 0.02968692132694803 4.466535992697507 2.306634293295714 -2.1443623462079904 -0.7176861309004169 3.429129389539297 0.3908351186380379 -0.886416501858142 -1.4834420096568128 1.9977355071200757 -0.9095757653523278 -0.7185998751576064 -0.18521577986248147 1.0359394070120795 13.205748480811216 -2.7251418931505396 0.4064790752309864 -0.6799136704395382 -6.933955121810602 1.4295864093844968 -17.496877516033468 -0.6651733710269702 -13.818567028959984 4.358717146999893 -18.07375191051892 74.77942258003992 -8.380057449837441 35.1656821180538 4.8241633805285735 3.795396809264774 101.8977029173941 21.43013166691065 -0.8141729875205381 -6.187134506533348 4.489369749292635 -0.10824768168581893 -1.5839766008029428 0.0038651173829177005 -0.020368886005850562 -56.20051323841979 0.036619913559472306 0.03695842201751053 -56.2058115799473 -38.76297487437322 0.031378190869375176 0.026182315678843472 0.009194597309038436 -0.016676403454437036 0.01935279527257907 -0.01571531700526687 -0.014652570006554917 0.029301867786339815 -36.677503018509306 0.04587904777140036 -0.00253702240019457 -0.0259009258657905 -0.01313992327130189 0.024626823550206917 -0.010286289349616676 0.014631174321553846 -0.0035564886900091536 -19.760516606493177 -6.340113708512621e-05 0.013029686577580947 0.02696659776610684 0.036701022984449244 0.020178867960477586 0.00039061215277738697 -0.03946161829537034 -0.004012336655733393 24.055898431328266 -0.04504760824902538 0.022117454564411537 28.880030925057707 -0.02695682890582822 -0.021132352350615887 28.856668413371523 0.013858907270235947 -0.021128259937342377 9.71752100559933 2.3120306120283827 14.532258798479448 -71.0262809705291 20.761526178995258 -11.685606208291388 -25.55146902201197 7.878619154490209 -88.28257136132058 -28.476036071769148 -10.396984864930388 7.915709774106839 -0.5039183237056524 0.06273744489435282 -8.147801686576562 0.021024916317833688 -0.006627187959463035 44.563791815028715 0.0251122904923307 -0.047001505590586544 44.5244839304877 12.46758179955269 0.01284203021359606 -0.016835393433604393 -0.025024767056484123 0.02568391487936932 0.035009925902220844 0.021713822861228017 -0.039903857980461886 -0.00022788880551014154 11.128515780101555 -0.02434224069895627 0.019855565299184995 -0.017522967772427327 -0.026278889955765196 -0.04521081551726559 0.03843544970397056 0.0015475330828846842 0.027829338222320622 4.726425895741016 -0.016803543739743996 -0.006604212075867025 0.013548209269127417 0.023027348507046873 -0.025084048008499702 -0.038754985241041456 -0.008649936405071274 -0.012338691754205926 -5.646593861622674 -0.02461032239728865 0.001067035838323005 -6.757233480770476 -0.019017177301774768 -0.034085704549911576 -6.683261547287856 0.00010594264801028348 0.049586894406467324 -0.028160183360236193 -0.018226473109176907 -0.012439933954369103 8.078513503351079 3.453007954026512 -19.239752627912974 -0.04741413073173233 10.395973015415317 0.007409287960480235 -5.597261464867762 -15.672109842253295 3.2108164281007556 -0.04139927677440195 0.01442190673942871 0.040022499829250845 -0.03274735944522171 4.6664224243465355 0.046902405320187836 12.449613458266741 -8.201278981940648 6.881268836165359 -0.022799707825925213 46.34237753303759 -0.02359298289346144 -4.295207894150504 -14.780659919106347 -3.854001715352291 -0.0320634766718744 0.01784592521856208 0.015021524011870083 0.01346558417040196 -10.784833918790394 -0.02821945085616159 
0.028554318417729242 0.009073881855299237 0.04668560280112831 0.02980073990812881 -0.01928882357931453 -0.03991998889743577 4.230793788588258 2.5534826199834866 -2.0122143445258858 -0.7386786704522537 3.467412158541262 0.43227443756271305 -0.8560605608041726 -1.392489057677731 1.9112085232452691 -0.8066488517825542 -0.7487757388305478 -0.13241094101224046 0.984889544981739 12.750149001452554 -2.718104098389843 0.3766380947138787 -0.7989957867233037 -7.082579161087287 1.3162647408328791 -17.4813704112702 -0.6956550926549174 -12.721312296701687 4.0788376487371245 -17.574073032609363 71.48467522218864 -5.423143277231325 32.05261575552363 4.32828115073841 2.5803087413758568 101.4210591978266 22.072530032216612 -0.7218323349327408 -6.330591576826248 4.535529419514331 -0.11210128500760708 -1.615769720665976 -0.0043793167479382914 0.021810111264127425 -56.27412438999761 -0.0032988590975191055 0.03695769711107475 -56.241160801608736 -38.79166659527773 -0.010690539063764925 0.003648807881457225 0.03817938706787484 -0.04752456686511154 -0.02271709344074383 0.03495498789843036 -0.04123072792589504 0.011417893113530947 -36.65734763076539 0.03503622688081595 0.03369807739007309 -0.035932200294740056 0.036145370394910246 0.03802408653831444 -0.0022298512954596677 -0.020638871233696208 -0.016046987157554243 -19.759627196306308 -0.03221721907934821 0.01747898483055379 0.03656407955258459 -0.013157582617438332 0.0022302426352986955 0.007827268183527776 0.04084215826017042 -0.005414090845662603 24.0292392409678 -0.023776183369825513 0.035437924900877826 28.8650060753226 -0.007192705314180846 0.03459193528340807 28.8458685718081 -0.03988374087238898 0.024339936326929008 9.20411511868844 2.280420291609782 14.419257434351568 -70.14923547726511 20.160519709974164 -11.464428253866613 -24.66576256582215 7.143326361825351 -88.77967844911434 -28.081731010904367 -9.829437363541787 7.369519209156868 -0.4625901838263889 0.0773584483017872 -8.095756310689413 -0.013207773868413942 -0.008556766352034418 44.579843157276166 0.03258001886832817 -0.024430002602212945 44.54399197368624 12.452414562123918 -0.023830763372660123 0.005195390489844327 -0.0013398211206083978 0.009735435369716593 -0.0074918496917596045 -0.01959845367402664 0.022761907831322363 -0.0049196298459101475 11.078347349737829 -0.008138490134894856 -0.040459238830507414 -0.0298051785927157 -0.027706260536921188 -0.0005203404965957918 -0.008663691482560533 0.04796831139867521 -0.046052542971346845 4.766921240787635 -0.038819712536127336 -0.019598631135203996 -0.011294914174841133 0.02199345052129956 -0.021820571989483433 0.008612225491785402 0.008606380197113437 -0.006172211735127685 -5.580571433115181 -0.04329632429965477 -0.0484808287811087 -6.671410788390151 0.035319250759592274 -0.016974712153630916 -6.731326988720428 0.009292970704397335 -0.003353123716203449 0.01735247129509541 0.03422082611604554 0.0378372659179763 8.059941642882633 3.4933123709282574 -19.19325443312097 0.048560160732604045 10.413388371078122 -0.019039968993201376 -5.632118968775104 -15.635980830722957 3.186403068093836 -0.0004938207156445942 -0.024362780150941832 0.01416856626345135 0.016566782994787227 4.688254892496667 -0.0444521497206829 12.4519869583242 -8.20921618303275 6.862684048809739 -0.008880693380198734 46.392081715024126 0.024992129790701763 -4.322898161950033 -14.729868496593093 -3.8788481369249976 0.004891877087242693 -0.04897885940217826 -0.03282782105805443 0.034932926201138345 -10.715586832155907 0.025606103967366706 
